<mxfile host="app.diagrams.net" modified="2023-08-14T21:33:40.188Z" agent="Mozilla/5.0 (Windows NT 10.0; Win64; x64; rv:109.0) Gecko/20100101 Firefox/116.0" etag="dd7fz8U_-w8pAXlrMy2Z" version="21.6.8" type="github">
  <diagram name="Page-1" id="e3a06f82-3646-2815-327d-82caf3d4e204">
    <mxGraphModel dx="1908" dy="1148" grid="0" gridSize="10" guides="1" tooltips="1" connect="1" arrows="1" fold="1" page="1" pageScale="1.5" pageWidth="1169" pageHeight="826" background="none" math="0" shadow="0">
      <root>
        <mxCell id="0" style=";html=1;" />
        <mxCell id="1" style=";html=1;" parent="0" />
        <mxCell id="6a7d8f32e03d9370-60" value="&lt;font style=&quot;font-size: 22px;&quot;&gt;COM GARANTIA&lt;/font&gt;" style="whiteSpace=wrap;html=1;fillColor=#d5e8d4;fontSize=14;strokeColor=none;verticalAlign=top;" parent="1" vertex="1">
          <mxGeometry x="80" y="303" width="374" height="300" as="geometry" />
        </mxCell>
        <mxCell id="6a7d8f32e03d9370-58" value="&lt;font style=&quot;font-size: 23px;&quot;&gt;DEFEITO&lt;/font&gt;" style="whiteSpace=wrap;html=1;fillColor=#f8cecc;fontSize=14;strokeColor=#b85450;verticalAlign=top;" parent="1" vertex="1">
          <mxGeometry x="1020" y="305" width="259" height="407" as="geometry" />
        </mxCell>
        <mxCell id="6a7d8f32e03d9370-57" value="&lt;font style=&quot;font-size: 22px;&quot;&gt;SEM GARANTIA&lt;br&gt;&lt;/font&gt;" style="whiteSpace=wrap;html=1;fillColor=#FFD470;gradientColor=none;fontSize=14;strokeColor=none;verticalAlign=top;" parent="1" vertex="1">
          <mxGeometry x="488" y="305" width="470" height="412" as="geometry" />
        </mxCell>
        <mxCell id="6a7d8f32e03d9370-62" value="Plataforma de Interatividades - Notify / Openstreamer - Nagra" style="text;strokeColor=none;fillColor=none;html=1;fontSize=24;fontStyle=1;verticalAlign=middle;align=center;strokeWidth=4;" parent="1" vertex="1">
          <mxGeometry x="406" y="77" width="861" height="40" as="geometry" />
        </mxCell>
        <mxCell id="KZXAsSPHlEBXl1jQHBvt-1" value="&lt;font style=&quot;font-size: 24px;&quot;&gt;SP&lt;/font&gt;" style="verticalLabelPosition=bottom;sketch=0;aspect=fixed;html=1;verticalAlign=top;strokeColor=none;align=center;outlineConnect=0;shape=mxgraph.citrix.pbx_server;" vertex="1" parent="1">
          <mxGeometry x="110" y="393" width="65" height="85" as="geometry" />
        </mxCell>
        <mxCell id="KZXAsSPHlEBXl1jQHBvt-2" value="" style="verticalLabelPosition=bottom;sketch=0;aspect=fixed;html=1;verticalAlign=top;strokeColor=none;align=center;outlineConnect=0;shape=mxgraph.citrix.role_desktops;fillColor=#CCCCCC;gradientColor=#000000;gradientDirection=south;" vertex="1" parent="1">
          <mxGeometry x="150" y="453" width="25" height="25" as="geometry" />
        </mxCell>
        <mxCell id="KZXAsSPHlEBXl1jQHBvt-3" value="&lt;font style=&quot;font-size: 22px;&quot;&gt;COM GARANTIA&lt;/font&gt;" style="whiteSpace=wrap;html=1;fillColor=#d5e8d4;fontSize=14;strokeColor=none;verticalAlign=top;" vertex="1" parent="1">
          <mxGeometry x="1324" y="299" width="328" height="300" as="geometry" />
        </mxCell>
        <mxCell id="KZXAsSPHlEBXl1jQHBvt-4" value="&lt;font style=&quot;font-size: 24px;&quot;&gt;RJ&lt;/font&gt;" style="verticalLabelPosition=bottom;sketch=0;aspect=fixed;html=1;verticalAlign=top;strokeColor=none;align=center;outlineConnect=0;shape=mxgraph.citrix.pbx_server;" vertex="1" parent="1">
          <mxGeometry x="230" y="393" width="65" height="85" as="geometry" />
        </mxCell>
        <mxCell id="KZXAsSPHlEBXl1jQHBvt-5" value="&lt;font style=&quot;font-size: 24px;&quot;&gt;POA&lt;/font&gt;" style="verticalLabelPosition=bottom;sketch=0;aspect=fixed;html=1;verticalAlign=top;strokeColor=none;align=center;outlineConnect=0;shape=mxgraph.citrix.pbx_server;" vertex="1" parent="1">
          <mxGeometry x="350" y="393" width="65" height="85" as="geometry" />
        </mxCell>
        <mxCell id="KZXAsSPHlEBXl1jQHBvt-6" value="" style="verticalLabelPosition=bottom;sketch=0;aspect=fixed;html=1;verticalAlign=top;strokeColor=none;align=center;outlineConnect=0;shape=mxgraph.citrix.role_desktops;fillColor=#CCCCCC;gradientColor=#000000;gradientDirection=south;" vertex="1" parent="1">
          <mxGeometry x="270" y="450.5" width="25" height="25" as="geometry" />
        </mxCell>
        <mxCell id="KZXAsSPHlEBXl1jQHBvt-7" value="" style="verticalLabelPosition=bottom;sketch=0;aspect=fixed;html=1;verticalAlign=top;strokeColor=none;align=center;outlineConnect=0;shape=mxgraph.citrix.role_desktops;fillColor=#CCCCCC;gradientColor=#000000;gradientDirection=south;" vertex="1" parent="1">
          <mxGeometry x="390" y="450.5" width="25" height="25" as="geometry" />
        </mxCell>
        <mxCell id="KZXAsSPHlEBXl1jQHBvt-8" value="&lt;font style=&quot;font-size: 24px;&quot;&gt;GTB MAIN&lt;/font&gt;" style="verticalLabelPosition=bottom;sketch=0;aspect=fixed;html=1;verticalAlign=top;strokeColor=none;align=center;outlineConnect=0;shape=mxgraph.citrix.pbx_server;" vertex="1" parent="1">
          <mxGeometry x="1384" y="413" width="65" height="85" as="geometry" />
        </mxCell>
        <mxCell id="KZXAsSPHlEBXl1jQHBvt-9" value="&lt;font style=&quot;font-size: 24px;&quot;&gt;GTB BKP&lt;/font&gt;" style="verticalLabelPosition=bottom;sketch=0;aspect=fixed;html=1;verticalAlign=top;strokeColor=none;align=center;outlineConnect=0;shape=mxgraph.citrix.pbx_server;" vertex="1" parent="1">
          <mxGeometry x="1554" y="413" width="65" height="85" as="geometry" />
        </mxCell>
        <mxCell id="KZXAsSPHlEBXl1jQHBvt-10" value="&lt;font style=&quot;font-size: 22px;&quot;&gt;BRASILIA&lt;/font&gt;" style="verticalLabelPosition=bottom;sketch=0;aspect=fixed;html=1;verticalAlign=top;strokeColor=none;align=center;outlineConnect=0;shape=mxgraph.citrix.pbx_server;" vertex="1" parent="1">
          <mxGeometry x="560" y="367.5" width="65" height="85" as="geometry" />
        </mxCell>
        <mxCell id="KZXAsSPHlEBXl1jQHBvt-11" value="&lt;font style=&quot;font-size: 22px;&quot;&gt;CAMPINAS&lt;/font&gt;" style="verticalLabelPosition=bottom;sketch=0;aspect=fixed;html=1;verticalAlign=top;strokeColor=none;align=center;outlineConnect=0;shape=mxgraph.citrix.pbx_server;" vertex="1" parent="1">
          <mxGeometry x="679" y="370" width="65" height="85" as="geometry" />
        </mxCell>
        <mxCell id="KZXAsSPHlEBXl1jQHBvt-12" value="&lt;font style=&quot;font-size: 22px;&quot;&gt;CURITIBA&lt;/font&gt;" style="verticalLabelPosition=bottom;sketch=0;aspect=fixed;html=1;verticalAlign=top;strokeColor=none;align=center;outlineConnect=0;shape=mxgraph.citrix.pbx_server;" vertex="1" parent="1">
          <mxGeometry x="801" y="367.5" width="65" height="85" as="geometry" />
        </mxCell>
        <mxCell id="KZXAsSPHlEBXl1jQHBvt-13" value="&lt;font style=&quot;font-size: 22px;&quot;&gt;MANAUS&lt;/font&gt;" style="verticalLabelPosition=bottom;sketch=0;aspect=fixed;html=1;verticalAlign=top;strokeColor=none;align=center;outlineConnect=0;shape=mxgraph.citrix.pbx_server;" vertex="1" parent="1">
          <mxGeometry x="625" y="527" width="65" height="85" as="geometry" />
        </mxCell>
        <mxCell id="KZXAsSPHlEBXl1jQHBvt-14" value="&lt;font style=&quot;font-size: 22px;&quot;&gt;RIBEIRÃƒO&lt;/font&gt;" style="verticalLabelPosition=bottom;sketch=0;aspect=fixed;html=1;verticalAlign=top;strokeColor=none;align=center;outlineConnect=0;shape=mxgraph.citrix.pbx_server;" vertex="1" parent="1">
          <mxGeometry x="744" y="527" width="65" height="85" as="geometry" />
        </mxCell>
        <mxCell id="KZXAsSPHlEBXl1jQHBvt-17" value="&lt;font style=&quot;font-size: 20px;&quot;&gt;Floripa&lt;/font&gt;" style="verticalLabelPosition=bottom;sketch=0;aspect=fixed;html=1;verticalAlign=top;strokeColor=none;align=center;outlineConnect=0;shape=mxgraph.citrix.pbx_server;" vertex="1" parent="1">
          <mxGeometry x="1063" y="368" width="65" height="85" as="geometry" />
        </mxCell>
        <mxCell id="KZXAsSPHlEBXl1jQHBvt-18" value="&lt;font style=&quot;font-size: 22px;&quot;&gt;SJC&lt;/font&gt;" style="verticalLabelPosition=bottom;sketch=0;aspect=fixed;html=1;verticalAlign=top;strokeColor=none;align=center;outlineConnect=0;shape=mxgraph.citrix.pbx_server;" vertex="1" parent="1">
          <mxGeometry x="1166" y="368" width="65" height="85" as="geometry" />
        </mxCell>
        <mxCell id="KZXAsSPHlEBXl1jQHBvt-19" value="&lt;font style=&quot;font-size: 22px;&quot;&gt;BH&lt;/font&gt;" style="verticalLabelPosition=bottom;sketch=0;aspect=fixed;html=1;verticalAlign=top;strokeColor=none;align=center;outlineConnect=0;shape=mxgraph.citrix.pbx_server;" vertex="1" parent="1">
          <mxGeometry x="1069" y="514" width="65" height="85" as="geometry" />
        </mxCell>
        <mxCell id="KZXAsSPHlEBXl1jQHBvt-20" value="&lt;font style=&quot;font-size: 20px;&quot;&gt;SANTOS&lt;/font&gt;" style="verticalLabelPosition=bottom;sketch=0;aspect=fixed;html=1;verticalAlign=top;strokeColor=none;align=center;outlineConnect=0;shape=mxgraph.citrix.pbx_server;" vertex="1" parent="1">
          <mxGeometry x="1172" y="512" width="65" height="85" as="geometry" />
        </mxCell>
      </root>
    </mxGraphModel>
  </diagram>
</mxfile>
